<?xml version="1.0" encoding="UTF-8" standalone="no"?>
<!-- Generator: Adobe Illustrator 19.1.0, SVG Export Plug-In . SVG Version: 6.00 Build 0)  -->

<svg
   xmlns:dc="http://purl.org/dc/elements/1.1/"
   xmlns:cc="http://creativecommons.org/ns#"
   xmlns:rdf="http://www.w3.org/1999/02/22-rdf-syntax-ns#"
   xmlns:svg="http://www.w3.org/2000/svg"
   xmlns="http://www.w3.org/2000/svg"
   xmlns:sodipodi="http://sodipodi.sourceforge.net/DTD/sodipodi-0.dtd"
   xmlns:inkscape="http://www.inkscape.org/namespaces/inkscape"
   version="1.1"
   id="Layer_1"
   x="0px"
   y="0px"
   viewBox="-114 150 269.2 202"
   style="enable-background:new -114 150 269.2 202;"
   xml:space="preserve"
   inkscape:version="0.91 r13725"
   sodipodi:docname="lansing-code-lab-with-name-blue.svg"
   inkscape:export-filename="/Users/egillespie/Pictures/Code Lab/lansing-codes-logo-blue.png"
   inkscape:export-xdpi="342.35001"
   inkscape:export-ydpi="342.35001"><metadata
     id="metadata19"><rdf:RDF><cc:Work
         rdf:about=""><dc:format>image/svg+xml</dc:format><dc:type
           rdf:resource="http://purl.org/dc/dcmitype/StillImage" /><dc:title /></cc:Work></rdf:RDF></metadata><defs
     id="defs17" /><sodipodi:namedview
     pagecolor="#ffffff"
     bordercolor="#666666"
     borderopacity="1"
     objecttolerance="10"
     gridtolerance="10"
     guidetolerance="10"
     inkscape:pageopacity="0"
     inkscape:pageshadow="2"
     inkscape:window-width="1436"
     inkscape:window-height="855"
     id="namedview15"
     showgrid="false"
     inkscape:zoom="1.1515601"
     inkscape:cx="109.41678"
     inkscape:cy="101"
     inkscape:window-x="4"
     inkscape:window-y="1"
     inkscape:window-maximized="1"
     inkscape:current-layer="Layer_1" /><style
     type="text/css"
     id="style3">
	.st0{fill:#3E79B9;}
	.st1{fill:#3F79BA;}
</style><g
     id="g4344"
     transform="matrix(0.55,0,0,0.55,9.270006,70.376532)"><path
       id="path5"
       d="m -54.2,288.5 c -0.3,-0.6 -0.7,-1.1 -1.2,-1.6 -0.7,-1 -9.2,-12.3 -12.6,-17.1 -2.3,-3.1 -4.7,-6.1 -6.9,-9.2 -2.3,-3.3 -4.7,-6.4 -7.3,-10.2 0,-0.1 -0.1,-0.1 -0.1,-0.2 0,-0.1 0.1,-0.1 0.1,-0.2 2.6,-3.8 5,-7 7.3,-10.2 2.2,-3.1 4.6,-6.1 6.9,-9.2 3.4,-4.8 12,-16.2 12.6,-17.1 0.4,-0.5 0.8,-1 1.2,-1.6 0.4,-0.6 0.7,-1.2 1,-1.8 7.9,-14.9 -5.5,-25.1 -5.5,-25.1 -0.5,-0.4 -1.1,-0.8 -1.9,-1.1 -4.7,-1.7 -8.3,-0.7 -11.6,2.8 -1.2,1.3 -2.2,2.7 -3.3,4.1 -5.1,6.5 -9.7,13.4 -14.7,19.9 -4.2,5.5 -7.8,11.5 -12.1,16.9 -3,3.7 -9.8,14.4 -10.3,15.7 -0.8,2.3 -1.3,4.5 -1.4,6.5 l 0,0 c 0,0.1 0,0.3 0,0.4 0,0.1 0,0.3 0,0.4 l 0,0 c 0.1,2.1 0.5,4.2 1.4,6.5 0.5,1.3 7.3,12 10.3,15.7 4.3,5.4 7.9,11.4 12.1,16.9 5,6.5 9.6,13.4 14.7,19.9 1.1,1.4 2.1,2.8 3.3,4.1 3.3,3.5 6.9,4.5 11.6,2.8 0.7,-0.3 1.3,-0.6 1.9,-1.1 0,0 13.4,-10.1 5.5,-25.1 -0.3,-0.5 -0.6,-1.1 -1,-1.8 z"
       class="st0"
       inkscape:connector-curvature="0"
       style="fill:#3e79b9" /><path
       id="path7"
       d="m 95.4,288.5 c 0.3,-0.6 0.7,-1.1 1.2,-1.6 0.7,-1 9.2,-12.3 12.6,-17.1 2.3,-3.1 4.7,-6.1 6.9,-9.2 2.3,-3.3 4.7,-6.4 7.3,-10.2 0,-0.1 0.1,-0.1 0.1,-0.2 0,-0.1 -0.1,-0.1 -0.1,-0.2 -2.6,-3.8 -5,-7 -7.3,-10.2 -2.2,-3.1 -4.6,-6.1 -6.9,-9.2 -3.4,-4.8 -12,-16.2 -12.6,-17.1 -0.4,-0.5 -0.8,-1 -1.2,-1.6 -0.4,-0.6 -0.7,-1.2 -1,-1.8 -7.9,-14.9 5.5,-25.1 5.5,-25.1 0.5,-0.4 1.1,-0.8 1.9,-1.1 4.7,-1.7 8.3,-0.7 11.6,2.8 1.2,1.3 2.2,2.7 3.3,4.1 5.1,6.5 9.7,13.4 14.7,19.9 4.2,5.5 7.8,11.5 12.1,16.9 3,3.7 9.8,14.4 10.3,15.7 0.8,2.3 1.3,4.5 1.4,6.5 l 0,0 c 0,0.1 0,0.3 0,0.4 0,0.1 0,0.3 0,0.4 l 0,0 c -0.1,2.1 -0.5,4.2 -1.4,6.5 -0.5,1.3 -7.3,12 -10.3,15.7 -4.3,5.4 -7.9,11.4 -12.1,16.9 -5,6.5 -9.6,13.4 -14.7,19.9 -1.1,1.4 -2.1,2.8 -3.3,4.1 -3.3,3.5 -6.9,4.5 -11.6,2.8 -0.7,-0.3 -1.3,-0.6 -1.9,-1.1 0,0 -13.4,-10.1 -5.5,-25.1 0.3,-0.5 0.6,-1.1 1,-1.8 z"
       class="st0"
       inkscape:connector-curvature="0"
       style="fill:#3e79b9" /><path
       id="path9"
       d="m 61.9,243 0,0 c -13.5,0 -27,0 -40.6,0 0,0 0,0 0,0 -0.2,0 -0.4,0 -0.5,0 0,0 0,0 0,0 -13.8,0 -27.3,0 -40.8,0 l 0,0 c -4.3,0.2 -7.7,3.7 -7.7,8.1 0,4.4 3.4,7.9 7.7,8.1 0,0 0,0 0,0 l 0.2,0 0,22.6 12,0 0,-22.6 c 1.4,0 2.7,0 4,0 2.3,0 4.6,0 7,0 0,7.5 0,15 0,22.6 3.9,0 7.7,0 12,0 0.1,-7.4 0,-15 0,-22.7 1.8,0 3.6,0 5.4,0 0,0 0,0 0,0 0.2,0 0.4,0 0.5,0 0,0 0,0 0,0 1.8,0 3.6,0 5.4,0 0,7.7 -0.1,15.3 0,22.7 4.3,0 8.1,0 12,0 0,-7.6 0,-15.1 0,-22.6 2.4,0 4.7,0 7,0 1.3,0 2.7,0 4,0 l 0,22.6 12,0 0,-22.6 0.2,0 c 0,0 0,0 0,0 4.3,-0.2 7.7,-3.7 7.7,-8.1 0,-4.4 -3.3,-7.9 -7.5,-8.1 z"
       class="st1"
       inkscape:connector-curvature="0"
       style="fill:#3f79ba" /><path
       id="path11"
       d="m 72.8,335.8 c 0,0 0,0 0,0 l -0.2,0 0,-1.5 c 0,0 0,-0.1 0,-0.1 l 0,-6.4 0,-14.6 0,-8 0.2,0 c 0,0 0,0 0,0 4.3,-0.2 7.7,-3.7 7.7,-8.1 0,-4.4 -3.4,-7.9 -7.7,-8.1 l 0,0 c -4.1,0 -8.1,0 -12.2,0 l 0,0.1 c -13.4,0 -26.9,0 -40.3,0 -13.4,0 -26.8,0 -40.3,0 l 0,-0.1 c -4.1,0 -8.1,0 -12.2,0 l 0,0 c -4.3,0.2 -7.7,3.7 -7.7,8.1 0,4.4 3.4,7.9 7.7,8.1 0,0 0,0 0,0 l 0.2,0 0,8 0,14.6 0,6.4 c 0,0 0,0.1 0,0.1 l 0,1.5 -0.2,0 c 0,0 0,0 0,0 -4.3,0.2 -7.7,3.7 -7.7,8.1 0,4.4 3.4,7.9 7.7,8.1 l 0,0 c 0,0 0.1,0 0.2,0 4,0 8,0 12,0 13.5,0 26.9,0 40.3,0 13.4,0 26.8,0 40.3,0 4,0 8,0 12,0 0,0 0.1,0 0.2,0 l 0,0 c 4.3,-0.2 7.7,-3.7 7.7,-8.1 0,-4.4 -3.4,-7.9 -7.7,-8.1 z m -81.6,0.1 c -3.6,0 -7,0 -10.9,0 0,-7.7 0,-15.1 0,-22.7 3.5,0 7,0 10.9,0 0,7.4 0,15 0,22.7 z m 23.8,0 c -3.9,0 -7.7,0 -11.7,0 0,-7.5 0,-15 0,-22.8 1.7,0 3.7,-0.1 5.6,-0.1 2,0 4,0 6.1,0 0,7.6 0,15 0,22.9 z m 22.4,0 c -4,0 -7.8,0 -11.7,0 0,-7.9 0,-15.3 0,-22.9 2.1,0 4.1,0 6.1,0 1.9,0 3.9,0.1 5.6,0.1 0,7.8 0,15.3 0,22.8 z m 23,0 c -3.9,0 -7.3,0 -10.9,0 0,-7.7 0,-15.3 0,-22.7 3.9,0 7.4,0 10.9,0 0,7.6 0,15 0,22.7 z"
       class="st1"
       inkscape:connector-curvature="0"
       style="fill:#3f79ba" /><path
       id="path13"
       d="m 56.8,220.1 0,0 c -0.1,-0.1 -0.1,-0.1 0,0 -2,-8.1 -4,-16.1 -8.8,-22.9 -4.9,-6.9 -10.8,-12.8 -18.7,-16.3 0.4,-2.8 -0.7,-5.4 1.1,-7.8 -0.6,-2.1 -0.9,-4.3 -1.7,-6.3 -1,-2.4 -3,-3.9 -5.3,-5.2 0,-2.9 -0.1,-5.7 0,-8.5 0.1,-1.5 -0.5,-2.5 -1.8,-3.2 -0.1,0 -0.1,0 -0.2,0.1 -0.2,0 -0.3,0 -0.3,0 -1.3,0.7 -1.9,1.7 -1.8,3.2 0.1,2.8 0,5.6 0,8.5 -2.2,1.2 -4.3,2.8 -5.3,5.2 -0.8,2 -1.2,4.2 -1.7,6.3 1.8,2.3 0.7,5 1.1,7.8 -7.9,3.5 -13.8,9.4 -18.7,16.3 -4.9,6.8 -6.8,14.8 -8.8,22.8 0,0 0,0 0,0 -4.1,0 -7.5,3.4 -7.5,7.5 0,4.1 3.4,7.5 7.5,7.5 11.8,0 23.7,0 35.5,0 11.8,0 23.6,0 35.5,0 4.1,0 7.5,-3.4 7.5,-7.5 0,-4.1 -3.5,-7.5 -7.6,-7.5 z"
       class="st0"
       inkscape:connector-curvature="0"
       style="fill:#3e79b9" /></g><g
     transform="matrix(1.1,0,0,1.1,-77.143158,427.19228)"
     style="font-style:normal;font-weight:normal;font-size:40px;line-height:125%;font-family:sans-serif;letter-spacing:0px;word-spacing:0px;fill:#3e79b9;fill-opacity:1;stroke:none;stroke-width:1px;stroke-linecap:butt;stroke-linejoin:miter;stroke-opacity:1"
     id="flowRoot4324"><path
       d="m 4.5410156,-143.32925 7.5195314,0 0,23.47656 13.203125,0 0,5.68359 -20.7226564,0 0,-29.16015 z"
       style="font-weight:bold"
       id="path4171" /><path
       d="m 39.580078,-124.01285 q -2.1875,0 -3.300781,0.74219 -1.09375,0.74219 -1.09375,2.1875 0,1.32813 0.878906,2.08985 0.898438,0.74218 2.480469,0.74218 1.972656,0 3.320312,-1.40625 1.347657,-1.42578 1.347657,-3.55468 l 0,-0.80079 -3.632813,0 z m 10.683594,-2.63671 0,12.48046 -7.050781,0 0,-3.24218 q -1.40625,1.99218 -3.164063,2.91015 -1.757812,0.89844 -4.277344,0.89844 -3.398437,0 -5.527343,-1.97266 -2.109375,-1.99218 -2.109375,-5.15625 0,-3.84765 2.636718,-5.64453 2.65625,-1.79687 8.320313,-1.79687 l 4.121094,0 0,-0.54688 q 0,-1.66015 -1.308594,-2.42187 -1.308594,-0.78125 -4.082031,-0.78125 -2.246094,0 -4.179688,0.44922 -1.933594,0.44922 -3.59375,1.34765 l 0,-5.33203 q 2.246094,-0.54687 4.511719,-0.82031 2.265625,-0.29297 4.53125,-0.29297 5.917969,0 8.535156,2.34375 2.636719,2.32422 2.636719,7.57813 z"
       style="font-weight:bold"
       id="path4173" /><path
       d="m 78.720703,-127.48941 0,13.32031 -7.03125,0 0,-2.16796 0,-8.02735 q 0,-2.83203 -0.136719,-3.90625 -0.117187,-1.07422 -0.429687,-1.58203 -0.410156,-0.68359 -1.113281,-1.05469 -0.703125,-0.39062 -1.601563,-0.39062 -2.1875,0 -3.4375,1.69922 -1.25,1.67968 -1.25,4.66797 l 0,10.76171 -6.992187,0 0,-21.875 6.992187,0 0,3.20313 q 1.582031,-1.91406 3.359375,-2.8125 1.777344,-0.91797 3.925781,-0.91797 3.789063,0 5.742188,2.32422 1.972656,2.32422 1.972656,6.75781 z"
       style="font-weight:bold"
       id="path4175" /><path
       d="m 102.33398,-135.3605 0,5.3125 q -2.24609,-0.9375 -4.335933,-1.40625 -2.089844,-0.46875 -3.945313,-0.46875 -1.992187,0 -2.96875,0.50781 -0.957031,0.48828 -0.957031,1.52344 0,0.83984 0.722656,1.28906 0.742188,0.44922 2.636719,0.66406 l 1.230469,0.17578 q 5.371093,0.6836 7.226563,2.2461 1.85547,1.5625 1.85547,4.90234 0,3.4961 -2.57813,5.25391 -2.578122,1.75781 -7.695309,1.75781 -2.167969,0 -4.492188,-0.35156 -2.304687,-0.33203 -4.746094,-1.01563 l 0,-5.3125 q 2.089844,1.01563 4.277344,1.52344 2.207031,0.50781 4.472656,0.50781 2.050782,0 3.085938,-0.5664 1.035156,-0.56641 1.035156,-1.67969 0,-0.9375 -0.722656,-1.38672 -0.703125,-0.46875 -2.832031,-0.72266 l -1.230469,-0.15625 q -4.667969,-0.58593 -6.542969,-2.16796 -1.875,-1.58204 -1.875,-4.80469 0,-3.47656 2.382813,-5.15625 2.382812,-1.67969 7.304687,-1.67969 1.933594,0 4.0625,0.29297 2.128906,0.29297 4.628902,0.91797 z"
       style="font-weight:bold"
       id="path4177" /><path
       d="m 108.99414,-136.0441 6.99219,0 0,21.875 -6.99219,0 0,-21.875 z m 0,-8.51562 6.99219,0 0,5.70312 -6.99219,0 0,-5.70312 z"
       style="font-weight:bold"
       id="path4179" /><path
       d="m 144.73633,-127.48941 0,13.32031 -7.03125,0 0,-2.16796 0,-8.02735 q 0,-2.83203 -0.13672,-3.90625 -0.11719,-1.07422 -0.42969,-1.58203 -0.41015,-0.68359 -1.11328,-1.05469 -0.70312,-0.39062 -1.60156,-0.39062 -2.1875,0 -3.4375,1.69922 -1.25,1.67968 -1.25,4.66797 l 0,10.76171 -6.99219,0 0,-21.875 6.99219,0 0,3.20313 q 1.58203,-1.91406 3.35937,-2.8125 1.77735,-0.91797 3.92578,-0.91797 3.78907,0 5.74219,2.32422 1.97266,2.32422 1.97266,6.75781 z"
       style="font-weight:bold"
       id="path4181" /><path
       d="m 166.14258,-117.88003 q -1.44531,1.91406 -3.1836,2.8125 -1.73828,0.89843 -4.02343,0.89843 -4.00391,0 -6.6211,-3.14453 -2.61718,-3.16406 -2.61718,-8.04687 0,-4.90235 2.61718,-8.02735 2.61719,-3.14453 6.6211,-3.14453 2.28515,0 4.02343,0.89844 1.73829,0.89844 3.1836,2.83203 l 0,-3.24219 7.03125,0 0,19.66797 q 0,5.27344 -3.33985,8.04688 -3.32031,2.79297 -9.64843,2.79297 -2.05078,0 -3.96485,-0.3125 -1.91406,-0.3125 -3.84765,-0.95703 l 0,-5.44922 q 1.83593,1.05468 3.59375,1.5625 1.75781,0.52734 3.53515,0.52734 3.4375,0 5.03907,-1.50391 1.60156,-1.5039 1.60156,-4.70703 l 0,-1.5039 z m -4.60938,-13.61328 q -2.16797,0 -3.3789,1.60156 -1.21094,1.60156 -1.21094,4.53125 0,3.00781 1.17187,4.57031 1.17188,1.54297 3.41797,1.54297 2.1875,0 3.39844,-1.60156 1.21094,-1.60157 1.21094,-4.51172 0,-2.92969 -1.21094,-4.53125 -1.21094,-1.60156 -3.39844,-1.60156 z"
       style="font-weight:bold"
       id="path4183" /></g><g
     transform="matrix(1.1,0,0,1.1,-436.66484,331.98843)"
     style="font-style:normal;font-weight:normal;font-size:40px;line-height:125%;font-family:sans-serif;letter-spacing:0px;word-spacing:0px;fill:#3e79b9;fill-opacity:1;stroke:none;stroke-width:1px;stroke-linecap:butt;stroke-linejoin:miter;stroke-opacity:1"
     id="flowRoot4332"><path
       d="m 338.54687,13.619966 q -2.07031,1.074219 -4.3164,1.621094 -2.2461,0.546875 -4.6875,0.546875 -7.28516,0 -11.54297,-4.0625 -4.25781,-4.0820311 -4.25781,-11.05468731 0,-6.99218749 4.25781,-11.05468769 4.25781,-4.082031 11.54297,-4.082031 2.4414,0 4.6875,0.546875 2.24609,0.546875 4.3164,1.621094 l 0,6.0351559 q -2.08984,-1.4257812 -4.12109,-2.0898437 -2.03125,-0.6640625 -4.27734,-0.6640625 -4.02344,0 -6.32813,2.578125 -2.30469,2.578125 -2.30469,7.10937499 0,4.51171871 2.30469,7.08984371 2.30469,2.5781246 6.32813,2.5781246 2.24609,0 4.27734,-0.6640621 2.03125,-0.6640625 4.12109,-2.0898437 l 0,6.0351558 z"
       style="font-weight:bold"
       id="path4156" /><path
       d="m 354.81641,-2.1808148 q -2.32422,0 -3.55469,1.67968749 -1.21094,1.66015621 -1.21094,4.80468751 0,3.1445312 1.21094,4.8242187 1.23047,1.6601561 3.55469,1.6601561 2.28515,0 3.49609,-1.6601561 1.21094,-1.6796875 1.21094,-4.8242187 0,-3.1445313 -1.21094,-4.80468751 -1.21094,-1.67968749 -3.49609,-1.67968749 z m 0,-5 q 5.64453,0 8.80859,3.046875 3.18359,3.046875 3.18359,8.4375 0,5.390625 -3.18359,8.4374998 -3.16406,3.046875 -8.80859,3.046875 -5.66407,0 -8.86719,-3.046875 -3.1836,-3.0468748 -3.1836,-8.4374998 0,-5.390625 3.1836,-8.4375 3.20312,-3.046875 8.86719,-3.046875 z"
       style="font-weight:bold"
       id="path4158" /><path
       d="m 386.78906,-3.4503461 0,-11.7187499 7.03125,0 0,30.390625 -7.03125,0 0,-3.164063 q -1.44531,1.933594 -3.18359,2.832032 -1.73828,0.898437 -4.02344,0.898437 -4.04297,0 -6.64062,-3.203125 -2.59766,-3.2226561 -2.59766,-8.2812498 0,-5.05859376 2.59766,-8.2617188 2.59765,-3.2226562 6.64062,-3.2226562 2.26563,0 4.00391,0.9179687 1.75781,0.8984375 3.20312,2.8125 z M 382.17969,10.70981 q 2.24609,0 3.41797,-1.6406248 1.1914,-1.640625 1.1914,-4.765625 0,-3.125 -1.1914,-4.76562501 -1.17188,-1.64062499 -3.41797,-1.64062499 -2.22657,0 -3.41797,1.64062499 -1.17188,1.64062501 -1.17188,4.76562501 0,3.125 1.17188,4.765625 1.1914,1.6406248 3.41797,1.6406248 z"
       style="font-weight:bold"
       id="path4160" /><path
       d="m 422.41406,4.2254352 0,1.9921875 -16.34765,0 q 0.2539,2.4609375 1.77734,3.6914062 1.52344,1.2304691 4.25781,1.2304691 2.20703,0 4.51172,-0.644532 2.32422,-0.6640621 4.76563,-1.9921871 l 0,5.3906251 q -2.48047,0.9375 -4.96094,1.40625 -2.48047,0.488281 -4.96094,0.488281 -5.9375,0 -9.23828,-3.007812 -3.28125,-3.0273441 -3.28125,-8.4765628 0,-5.3515625 3.22266,-8.4179688 3.24218,-3.0664062 8.90625,-3.0664062 5.15625,0 8.24218,3.1054687 3.10547,3.10546879 3.10547,8.3007813 z m -7.1875,-2.3242188 q 0,-1.99218746 -1.17187,-3.203125 -1.15235,-1.2304687 -3.02735,-1.2304687 -2.03125,0 -3.30078,1.1523437 -1.26953,1.13281254 -1.58203,3.28125 l 9.08203,0 z"
       style="font-weight:bold"
       id="path4162" /><path
       d="m 441.98437,-13.938627 7.51954,0 0,23.4765622 13.20312,0 0,5.6835938 -20.72266,0 0,-29.160156 z"
       style="font-weight:bold"
       id="path4164" /><path
       d="m 477.02344,5.3777789 q -2.1875,0 -3.30078,0.7421875 -1.09375,0.7421875 -1.09375,2.1875 0,1.328125 0.8789,2.0898436 0.89844,0.742188 2.48047,0.742188 1.97266,0 3.32031,-1.4062503 1.34766,-1.4257813 1.34766,-3.5546875 l 0,-0.8007813 -3.63281,0 z m 10.68359,-2.6367187 0,12.4804688 -7.05078,0 0,-3.242188 q -1.40625,1.992188 -3.16406,2.910157 -1.75782,0.898437 -4.27735,0.898437 -3.39843,0 -5.52734,-1.972656 -2.10938,-1.992188 -2.10938,-5.1562501 0,-3.8476562 2.63672,-5.6445312 2.65625,-1.796875 8.32032,-1.796875 l 4.12109,0 0,-0.54687501 q 0,-1.66015625 -1.30859,-2.42187499 -1.3086,-0.78125 -4.08204,-0.78125 -2.24609,0 -4.17968,0.4492187 -1.9336,0.4492188 -3.59375,1.34765629 l 0,-5.33203129 q 2.24609,-0.546875 4.51172,-0.8203125 2.26562,-0.2929687 4.53125,-0.2929687 5.91796,0 8.53515,2.34375 2.63672,2.3242187 2.63672,7.578125 z"
       style="font-weight:bold"
       id="path4166" /><path
       d="m 505.8125,10.70981 q 2.24609,0 3.41797,-1.6406248 1.1914,-1.640625 1.1914,-4.765625 0,-3.125 -1.1914,-4.76562501 -1.17188,-1.64062499 -3.41797,-1.64062499 -2.24609,0 -3.45703,1.66015624 -1.19141,1.64062496 -1.19141,4.74609376 0,3.1054687 1.19141,4.765625 1.21094,1.6406248 3.45703,1.6406248 z m -4.64844,-14.1601561 q 1.44531,-1.9140625 3.20313,-2.8125 1.75781,-0.9179687 4.04297,-0.9179687 4.04296,0 6.64062,3.2226562 2.59766,3.20312504 2.59766,8.2617188 0,5.0585937 -2.59766,8.2812498 -2.59766,3.203125 -6.64062,3.203125 -2.28516,0 -4.04297,-0.898437 -1.75782,-0.917969 -3.20313,-2.832032 l 0,3.164063 -6.99219,0 0,-30.390625 6.99219,0 0,11.7187499 z"
       style="font-weight:bold"
       id="path4168" /></g></svg>